# File created by Blade
# Date/Time:  Wed Jan 21 19:19:18 2015
# Frame Rate: 120.000 fps
#------------------------------------------------------
:FULLY-SPECIFIED
:DEGREES
1263
root -1.327274 32.836038 0.768388 43.463727 1.848156 2.341314
RightUpLeg -34.244650 -12.512809 5.002750
RightLeg -5.844825 -0.000000 0.000000
RightFoot -6.947652 0.651048 22.339526
RightToeBase 18.160093 -0.000000 -0.000000
LeftUpLeg -36.707759 3.784770 -2.195362
LeftLeg -1.797810 -0.000000 0.000000
LeftFoot -3.412529 -6.334352 -6.354086
LeftToeBase 4.353305 -0.000000 -0.000000
Spine -45.011746 -2.824438 -2.815715
RightShoulder -20.914333 20.908286 -49.157039
RightArm 0.373913 -15.622368 37.316043
RightForeArm 1.770301 0.000000 -9.459319
RightHand 5.522529 -0.000000 8.629717
RightHandThumb1 -24.326973 -0.000000 -32.862282
LeftShoulder -13.956876 0.910860 39.890712
LeftArm 19.868604 -15.988025 -36.805572
LeftForeArm 19.508784 -0.000000 -4.175017
LeftHand -25.928708 -0.000000 -0.774462
LeftHandThumb1 -26.253704 0.000000 33.147579
Head 1.926420 -2.292975 3.121470
1264
root -1.341491 32.842649 0.759638 43.434307 1.927407 2.301007
RightUpLeg -34.255592 -12.485419 5.047319
RightLeg -5.763377 -0.000000 0.000000
RightFoot -6.895803 0.666018 22.435346
RightToeBase 18.083171 -0.000000 -0.000000
LeftUpLeg -36.744396 3.770388 -2.102404
LeftLeg -1.714926 -0.000000 0.000000
LeftFoot -3.404588 -6.269296 -6.224339
LeftToeBase 4.238744 -0.000000 -0.000000
Spine -44.939158 -2.763379 -2.749404
RightShoulder -20.890363 20.824120 -49.150988
RightArm 0.442508 -15.664794 37.358324
RightForeArm 1.914919 -0.000000 -9.501647
RightHand 5.565249 0.000000 8.567244
RightHandThumb1 -24.326973 -0.000000 -32.862282
LeftShoulder -13.921210 1.081307 39.826500
LeftArm 19.950305 -16.089280 -36.841547
LeftForeArm 19.413198 -0.000000 -4.059834
LeftHand -25.942101 -0.000000 -0.567287
LeftHandThumb1 -26.253704 0.000000 33.147579
Head 1.911812 -2.285310 3.151562
1265
root -1.354948 32.845615 0.746735 43.411840 1.988359 2.249990
RightUpLeg -34.272745 -12.438706 5.087702
RightLeg -5.697563 -0.000000 0.000000
RightFoot -6.890992 0.687540 22.491745
RightToeBase 18.140091 -0.000000 -0.000000
LeftUpLeg -36.805912 3.772976 -2.002843
LeftLeg -1.598987 -0.000000 0.000000
LeftFoot -3.474192 -6.233377 -6.222571
LeftToeBase 4.773994 -0.000000 -0.000000
Spine -44.872307 -2.667853 -2.715869
RightShoulder -20.849945 20.833215 -49.143396
RightArm 0.405882 -15.752189 37.374385
RightForeArm 2.060504 -0.000000 -9.495272
RightHand 5.577579 -0.000000 8.510120
RightHandThumb1 -24.326973 -0.000000 -32.862282
LeftShoulder -13.873267 0.984836 39.861017
LeftArm 19.906733 -15.974601 -36.864990
LeftForeArm 19.350639 -0.000000 -3.968426
LeftHand -25.876606 -0.000000 -0.392506
LeftHandThumb1 -26.253704 0.000000 33.147579
Head 1.911612 -2.336701 3.208731
1266
root -1.370892 32.843089 0.732280 43.383368 2.030499 2.180033
RightUpLeg -34.278561 -12.367199 5.137620
RightLeg -5.645082 -0.000000 0.000000
RightFoot -6.894872 0.712108 22.455835
RightToeBase 18.159707 -0.000000 -0.000000
LeftUpLeg -36.882579 3.818869 -1.903841
LeftLeg -1.445413 -0.000000 0.000000
LeftFoot -3.636764 -6.259291 -6.190818
LeftToeBase 4.836920 -0.000000 -0.000000
Spine -44.807703 -2.565694 -2.680592
RightShoulder -20.789194 20.810980 -49.114573
RightArm 0.396934 -15.718356 37.393643
RightForeArm 2.045408 -0.000000 -9.488661
RightHand 5.592577 -0.000000 8.451418
RightHandThumb1 -24.326973 -0.000000 -32.862282
LeftShoulder -13.844931 0.913898 39.900003
LeftArm 19.908117 -15.888014 -36.881225
LeftForeArm 19.238105 0.000000 -3.889697
LeftHand -25.801092 -0.000000 -0.323426
LeftHandThumb1 -26.253704 0.000000 33.147579
Head 1.955468 -2.370078 3.301103
1267
root -1.385533 32.835647 0.714170 43.364953 2.059149 2.100176
RightUpLeg -34.324602 -12.328639 5.226040
RightLeg -5.562127 -0.000000 0.000000
RightFoot -6.946380 0.814977 22.509975
RightToeBase 18.234984 -0.000000 -0.000000
LeftUpLeg -37.005246 3.881486 -1.810217
LeftLeg -1.230383 -0.000000 0.000000
LeftFoot -3.878447 -6.310389 -6.124102
LeftToeBase 4.905880 -0.000000 -0.000000
Spine -44.750090 -2.435868 -2.659566
RightShoulder -20.751041 20.794074 -49.118569
RightArm 0.398119 -15.722873 37.448296
RightForeArm 2.095120 -0.000000 -9.514193
RightHand 5.507997 -0.000000 8.571645
RightHandThumb1 -24.326973 -0.000000 -32.862282
LeftShoulder -13.781444 0.763830 39.979561
LeftArm 19.845400 -15.698356 -36.869643
LeftForeArm 19.083299 -0.000000 -3.823839
LeftHand -25.730375 0.000000 -0.340832
LeftHandThumb1 -26.253704 0.000000 33.147579
Head 1.994683 -2.407546 3.385030
1268
root -1.400136 32.824148 0.696076 43.330300 2.055020 2.012830
RightUpLeg -34.335026 -12.215414 5.240062
RightLeg -5.495978 -0.000000 0.000000
RightFoot -7.032672 0.918683 22.555453
RightToeBase 18.340751 -0.000000 -0.000000
LeftUpLeg -37.113586 3.949214 -1.719818
LeftLeg -1.007267 -0.000000 0.000000
LeftFoot -4.157500 -6.337160 -6.088603
LeftToeBase 4.974339 -0.000000 -0.000000
Spine -44.684783 -2.292953 -2.640886
RightShoulder -20.698869 20.702563 -49.050658
RightArm 0.517060 -15.605858 37.436027
RightForeArm 2.107326 -0.000000 -9.525027
RightHand 5.426435 -0.000000 8.604088
RightHandThumb1 -24.326973 -0.000000 -32.862282
LeftShoulder -13.766943 0.854106 39.959754
LeftArm 20.017869 -15.660318 -36.838403
LeftForeArm 18.892906 0.000000 -3.851892
LeftHand -25.611865 0.000000 -0.386879
LeftHandThumb1 -26.253704 0.000000 33.147579
Head 2.060226 -2.471001 3.458317
1269
root -1.413150 32.807043 0.677583 43.291019 2.039365 1.924449
RightUpLeg -34.341568 -12.113518 5.267123
RightLeg -5.437281 -0.000000 0.000000
RightFoot -7.161921 1.033024 22.610706
RightToeBase 18.444231 -0.000000 -0.000000
LeftUpLeg -37.194613 4.002223 -1.625366
LeftLeg -0.822834 -0.000000 0.000000
LeftFoot -4.465300 -6.328372 -6.076116
LeftToeBase 5.184821 -0.000000 -0.000000
Spine -44.620113 -2.161814 -2.623447
RightShoulder -20.652756 20.702072 -48.993848
RightArm 0.590126 -15.667895 37.438074
RightForeArm 2.273315 -0.000000 -9.497813
RightHand 5.526097 -0.000000 8.526975
RightHandThumb1 -24.326973 -0.000000 -32.862282
LeftShoulder -13.760686 0.851577 40.018319
LeftArm 20.111566 -15.638877 -36.860129
LeftForeArm 18.875743 -0.000000 -3.868149
LeftHand -25.419983 0.000000 -0.427370
LeftHandThumb1 -26.253704 0.000000 33.147579
Head 2.142815 -2.472424 3.572906
